<?xml version="1.0" encoding="UTF-8"?>
<svg xmlns="http://www.w3.org/2000/svg" xmlns:xlink="http://www.w3.org/1999/xlink" width="15px" height="17px" viewBox="0 0 15 17" version="1.1">
<g id="surface1">
<path style=" stroke:none;fill-rule:nonzero;fill:rgb(0%,0%,0%);fill-opacity:1;" d="M 7.96875 0.214844 C 3.960938 0.214844 0 2.488281 0 6.164062 C 0 8.5 1.546875 9.828125 2.484375 9.828125 C 2.871094 9.828125 3.09375 8.910156 3.09375 8.652344 C 3.09375 8.34375 2.167969 7.6875 2.167969 6.402344 C 2.167969 3.730469 4.558594 1.839844 7.652344 1.839844 C 10.3125 1.839844 12.28125 3.125 12.28125 5.484375 C 12.28125 7.25 11.449219 10.554688 8.753906 10.554688 C 7.78125 10.554688 6.949219 9.957031 6.949219 9.101562 C 6.949219 7.847656 7.980469 6.628906 7.980469 5.335938 C 7.980469 3.136719 4.3125 3.535156 4.3125 6.191406 C 4.3125 6.75 4.394531 7.367188 4.6875 7.875 C 4.148438 9.847656 3.046875 12.785156 3.046875 14.820312 C 3.046875 15.445312 3.152344 16.0625 3.222656 16.691406 C 3.355469 16.816406 3.289062 16.804688 3.492188 16.742188 C 5.460938 14.449219 5.390625 14 6.28125 11.003906 C 6.761719 11.78125 8.003906 12.199219 8.988281 12.199219 C 13.136719 12.199219 15 8.761719 15 5.664062 C 15 2.367188 11.648438 0.214844 7.96875 0.214844 Z M 7.96875 0.214844 "/>
</g>
</svg>
